<svg xmlns="http://www.w3.org/2000/svg" viewBox="0 0 64 64" role="img" aria-label="Sanctuary">
  <rect width="64" height="64" rx="14" fill="#0e0e0e"/>
  <path transform="translate(7,12.8) scale(0.8)" fill="#e8e6e2" fill-rule="evenodd" clip-rule="evenodd" d="M33.3383 0C33.3383 8.31944 36.4342 16.1131 41.8671 21.5178C47.5164 16.9571 54.6766 14.23 62.4616 14.23V17.2079C56.1934 17.2079 49.6153 19.5458 44.7554 23.0529C44.3985 23.3105 43.9727 23.4545 43.5339 23.4545V24.2727C43.9723 24.2727 44.3973 24.4193 44.7504 24.6816C49.6233 28.3008 56.0278 30.7921 62.4616 30.7921V33.77C54.6766 33.77 47.5164 31.0429 41.8671 26.4822C36.4342 31.8869 33.3383 39.6806 33.3383 48H29.1234C29.1234 39.6805 26.0272 31.8869 20.5942 26.4822C14.945 31.0428 7.78498 33.77 0 33.77V30.7921C6.11258 30.7921 12.2845 28.2589 17.0799 24.8318C17.5814 24.4733 18.1779 24.2727 18.7926 24.2727V23.4545C18.1779 23.4545 17.5816 23.2535 17.0788 22.8968C12.2836 19.4952 6.11213 17.2079 0 17.2079V14.23C7.78498 14.23 14.945 16.9572 20.5942 21.5178C26.0272 16.1131 29.1234 8.3195 29.1234 0H33.3383ZM30.7412 10.5004C30.7412 11.4031 30.6014 12.3038 30.2691 13.1419C28.8321 16.7664 26.9402 20.0037 24.3199 22.769C23.9013 23.2106 23.0486 23.4545 22.4429 23.4545V24.2727C23.0486 24.2727 23.9013 24.7894 24.3199 25.231C26.9402 27.9963 28.8321 31.188 30.2691 34.8125C30.6014 35.6506 30.7412 36.5513 30.7412 37.454H31.7716C31.7716 36.5513 31.9114 35.6506 32.2437 34.8125C33.6808 31.188 35.5727 27.7236 38.193 24.9583C38.6115 24.5167 39.1939 24.2727 39.7995 24.2727V23.4545C39.1939 23.4545 38.6115 23.2106 38.193 22.769C35.5727 20.0037 33.6808 16.7664 32.2437 13.1419C31.9114 12.3038 31.7716 11.4031 31.7716 10.5004H30.7412Z"/>
</svg>
