<svg width="241" height="48" viewBox="0 0 241 48" fill="none" xmlns="http://www.w3.org/2000/svg">
<path d="M86.5637 33.7079C82.4542 33.7079 79.9516 31.4676 79.0823 28.5339L81.6376 27.3604C82.2961 29.494 83.824 31.3076 86.7218 31.3076C89.2507 31.3076 90.6205 30.0808 90.6205 28.3205C90.6205 26.7737 89.5404 25.8402 87.275 25.3602L84.8251 24.8001C81.9537 24.1867 80.0043 22.7732 80.0043 19.5995C80.0043 16.5858 82.5332 14.2921 86.432 14.2921C90.4888 14.2921 92.5435 16.8258 93.0967 18.6927L90.6205 19.8395C90.199 18.586 89.0926 16.6924 86.1949 16.6924C83.9031 16.6924 82.6386 17.8659 82.6386 19.4661C82.6386 20.9863 83.5606 21.7331 85.5627 22.1864L88.0916 22.7465C91.1737 23.4133 93.3865 25.1735 93.3865 28.0805C93.3865 31.3342 91.0156 33.7079 86.5637 33.7079Z" fill="white"/>
<path d="M112.38 33.3345H109.429L107.717 28.4005H99.6034L97.8648 33.3345H95.0198L101.948 14.6655H105.583L112.38 33.3345ZM102.264 20.8796L100.473 25.9469H106.848L105.083 20.8796C104.556 19.3328 104.266 18.266 104.24 16.5324H103.133C103.081 18.266 102.817 19.3594 102.264 20.8796Z" fill="white"/>
<path d="M118.107 33.3345H115.473V14.6655H119.503L129.171 30.1074L130.119 29.4407C129.171 27.9205 128.881 26.907 128.881 24.5601V14.6655H131.515V33.3345H128.249L117.949 16.9058L117 17.5192C117.764 19.0394 118.107 20.4529 118.107 22.9332V33.3345Z" fill="white"/>
<path d="M144.492 33.7079C138.723 33.7079 135.456 29.3073 135.456 23.84C135.456 18.3993 139.118 14.2921 144.492 14.2921C149.207 14.2921 151.815 17.1992 152.579 19.8128L149.945 20.7729C149.418 19.1194 148.022 16.7191 144.492 16.7191C140.777 16.7191 138.275 19.3861 138.275 23.8133C138.275 28.2405 140.751 31.2809 144.492 31.2809C147.969 31.2809 149.339 29.254 150.024 27.0137L152.605 28.0272C151.71 31.0942 149.023 33.7079 144.492 33.7079Z" fill="white"/>
<path d="M162.812 33.3345H160.178V17.1192H153.645V14.6655H169.53V17.1192H162.812V33.3345Z" fill="white"/>
<path d="M179.357 33.7079C174.958 33.7079 172.165 31.2809 172.165 26.1336V14.6655H174.8V25.7335C174.8 29.1206 176.222 31.2276 179.357 31.2276C182.518 31.2276 183.914 29.0673 183.914 25.7335V14.6655H186.548V26.1336C186.548 30.9609 184.02 33.7079 179.357 33.7079Z" fill="white"/>
<path d="M206.355 33.3345H203.404L201.692 28.4005H193.579L191.84 33.3345H188.995L195.923 14.6655H199.558L206.355 33.3345ZM196.239 20.8796L194.448 25.9469H200.823L199.058 20.8796C198.531 19.3328 198.241 18.266 198.215 16.5324H197.108C197.056 18.266 196.792 19.3594 196.239 20.8796Z" fill="white"/>
<path d="M212.082 33.3345H209.448V14.6655H217.324C221.144 14.6655 223.278 16.8791 223.278 19.7328C223.278 22.9065 220.775 23.84 218.536 23.9733V25.0935C221.197 25.1468 222.198 26.1336 222.698 28.6406L223.62 33.3345H220.749L220.011 28.8806C219.59 26.507 218.378 25.6269 215.902 25.6269H212.082V33.3345ZM212.082 17.1192V23.2266H216.929C218.984 23.2266 220.512 22.2665 220.512 20.1595C220.512 18.0526 218.984 17.1192 216.929 17.1192H212.082Z" fill="white"/>
<path d="M234.52 33.3345H231.885V25.5202L225.194 14.6655H228.355L231.464 19.9195C232.412 21.5464 232.649 22.6932 232.676 24.0533H233.782C233.808 22.6665 234.046 21.5197 234.941 19.8928L237.865 14.6655H241L234.52 25.4135V33.3345Z" fill="white"/>
<path fill-rule="evenodd" clip-rule="evenodd" d="M33.3383 0C33.3383 8.31944 36.4342 16.1131 41.8671 21.5178C47.5164 16.9571 54.6766 14.23 62.4616 14.23V17.2079C56.1934 17.2079 49.6153 19.5458 44.7554 23.0529C44.3985 23.3105 43.9727 23.4545 43.5339 23.4545V24.2727C43.9723 24.2727 44.3973 24.4193 44.7504 24.6816C49.6233 28.3008 56.0278 30.7921 62.4616 30.7921V33.77C54.6766 33.77 47.5164 31.0429 41.8671 26.4822C36.4342 31.8869 33.3383 39.6806 33.3383 48H29.1234C29.1234 39.6805 26.0272 31.8869 20.5942 26.4822C14.945 31.0428 7.78498 33.77 0 33.77V30.7921C6.11258 30.7921 12.2845 28.2589 17.0799 24.8318C17.5814 24.4733 18.1779 24.2727 18.7926 24.2727V23.4545C18.1779 23.4545 17.5816 23.2535 17.0788 22.8968C12.2836 19.4952 6.11213 17.2079 0 17.2079V14.23C7.78498 14.23 14.945 16.9572 20.5942 21.5178C26.0272 16.1131 29.1234 8.3195 29.1234 0H33.3383ZM30.7412 10.5004C30.7412 11.4031 30.6014 12.3038 30.2691 13.1419C28.8321 16.7664 26.9402 20.0037 24.3199 22.769C23.9013 23.2106 23.0486 23.4545 22.4429 23.4545V24.2727C23.0486 24.2727 23.9013 24.7894 24.3199 25.231C26.9402 27.9963 28.8321 31.188 30.2691 34.8125C30.6014 35.6506 30.7412 36.5513 30.7412 37.454H31.7716C31.7716 36.5513 31.9114 35.6506 32.2437 34.8125C33.6808 31.188 35.5727 27.7236 38.193 24.9583C38.6115 24.5167 39.1939 24.2727 39.7995 24.2727V23.4545C39.1939 23.4545 38.6115 23.2106 38.193 22.769C35.5727 20.0037 33.6808 16.7664 32.2437 13.1419C31.9114 12.3038 31.7716 11.4031 31.7716 10.5004H30.7412Z" fill="white"/>
</svg>
